<?xml version="1.0" encoding="iso-8859-1"?>
<!-- Uploaded to: SVG Repo, www.svgrepo.com, Generator: SVG Repo Mixer Tools -->
<svg height="800px" width="800px" version="1.1" id="Layer_1" xmlns="http://www.w3.org/2000/svg" xmlns:xlink="http://www.w3.org/1999/xlink" 
	 viewBox="0 0 502.659 502.659" xml:space="preserve">
<path style="fill:#14C18B;" d="M224.641,446.297c0,0,11.52-97.752-77.6-142.12s-147.016,0.84-147.016,0.84
	s-3.336,90.32,66.384,128.6C134.441,470.969,224.641,446.297,224.641,446.297z"/>
<g style="opacity:0.25;">
	<path d="M224.953,446.297c0,0,11.52-97.752-77.6-142.12s-147.016,0.84-147.016,0.84"/>
</g>
<path style="fill:#14C18B;" d="M278.017,446.297c0,0-11.52-97.752,77.6-142.12s147.016,0.848,147.016,0.848
	s3.336,90.32-66.384,128.6C368.217,470.969,278.017,446.297,278.017,446.297z"/>
<g style="opacity:0.25;">
	<path d="M278.017,446.297c0,0-11.52-97.752,77.6-142.12s147.016,0.848,147.016,0.848"/>
</g>
<polyline style="fill:#14C18B;" points="280.425,258.361 280.425,495.201 222.233,495.201 222.233,258.361 "/>
<g style="opacity:0.25;">
	<polyline points="251.129,258.361 251.129,495.201 222.233,495.201 222.233,258.361 	"/>
</g>
<ellipse style="fill:#FF3D2E;" cx="251.329" cy="136.529" rx="198.696" ry="129.04"/>
<g style="opacity:0.15;">
	<path d="M251.329,265.561c-109.736,0-198.696-57.776-198.696-129.048S141.593,7.457,251.329,7.457"/>
</g>
<path style="fill:#FFFFFF;" d="M251.329,204.393c-60.016,0-108.84-30.456-108.84-67.88c0-37.44,48.832-67.888,108.84-67.888
	s108.832,30.456,108.832,67.888C360.169,173.937,311.345,204.393,251.329,204.393z"/>
<path style="fill:#EAEAEA;" d="M251.329,76.625c54.664,0,100.84,27.424,100.84,59.888s-46.176,59.88-100.84,59.88
	s-100.84-27.424-100.84-59.888S196.665,76.625,251.329,76.625 M251.329,60.625c-64.528,0-116.84,33.976-116.84,75.888
	s52.312,75.88,116.84,75.88s116.84-33.976,116.84-75.888S315.857,60.625,251.329,60.625L251.329,60.625z"/>
<g>
	<path style="fill:#1A1718;" d="M283.161,94.129c-7.784,0-14.096,15.608-14.096,34.864s6.312,34.864,14.096,34.864
		s14.096-15.608,14.096-34.864C297.249,109.737,290.945,94.129,283.161,94.129L283.161,94.129z"/>
	<path style="fill:#1A1718;" d="M219.505,94.129c-7.784,0-14.096,15.608-14.096,34.864s6.312,34.864,14.096,34.864
		s14.096-15.608,14.096-34.864C233.593,109.737,227.289,94.129,219.505,94.129L219.505,94.129z"/>
</g>
</svg>