<?xml version="1.0" encoding="iso-8859-1"?>
<!-- Uploaded to: SVG Repo, www.svgrepo.com, Generator: SVG Repo Mixer Tools -->
<svg version="1.1" id="Layer_1" xmlns="http://www.w3.org/2000/svg" xmlns:xlink="http://www.w3.org/1999/xlink" 
	 viewBox="0 0 392.727 392.727" xml:space="preserve">
<path style="fill:#FFFFFF;" d="M359.822,21.947H32.711c-6.012,0-10.925,4.848-10.925,10.925v258.909
	c0,6.012,4.848,10.925,10.925,10.925h327.111c6.012,0,10.925-4.848,10.925-10.925V32.873
	C370.747,26.861,365.834,21.947,359.822,21.947z"/>
<g>
	<polygon style="fill:#FFC10D;" points="129.552,324.558 95.483,370.909 297.051,370.909 262.982,324.558 	"/>
	<rect x="65.422" y="65.584" style="fill:#FFC10D;" width="261.754" height="39.564"/>
</g>
<rect x="65.422" y="126.933" style="fill:#56ACE0;" width="261.754" height="132.137"/>
<g>
	<path style="fill:#194F82;" d="M359.822,0.162H32.711C14.675,0.162,0,14.836,0,32.873v258.909
		c0,18.036,14.675,32.711,32.711,32.711h69.818L65.228,375.24c-2.457,3.297-2.78,7.758-0.905,11.378
		c1.875,3.62,5.624,5.947,9.762,5.947h244.622h0.065c6.012,0,10.925-4.849,10.925-10.925c0-2.909-1.164-5.56-3.038-7.499
		l-36.525-49.778h69.883c18.036,0,32.711-14.675,32.711-32.711V32.873C392.533,14.836,377.859,0.162,359.822,0.162z
		 M297.051,370.909H95.483l34.069-46.352h133.366L297.051,370.909z M359.822,302.707H32.711c-6.012,0-10.925-4.848-10.925-10.925
		V32.873c0-6.012,4.848-10.925,10.925-10.925h327.111c6.012,0,10.925,4.848,10.925,10.925v258.909h0.065
		C370.747,297.794,365.899,302.707,359.822,302.707z"/>
	<path style="fill:#194F82;" d="M337.972,43.733H54.562c-6.012,0-10.925,4.848-10.925,10.925v215.337
		c0,6.012,4.848,10.925,10.925,10.925h283.539c6.012,0,10.925-4.848,10.925-10.925V54.723
		C348.962,48.711,343.984,43.733,337.972,43.733z M327.176,259.071h-0.065H65.422V126.933h261.754V259.071z M327.176,105.147h-0.065
		H65.422V65.584h261.754V105.147z"/>
	<path style="fill:#194F82;" d="M138.537,188.154c11.313,0,16.356-10.279,16.356-18.101c0-7.822-5.107-18.101-16.356-18.101
		c-11.766,0-16.743,10.99-16.356,18.101C121.794,177.164,126.772,188.154,138.537,188.154z M138.537,160.356
		c6.4,0,7.758,6.853,7.758,9.762c0,2.909-1.228,9.762-7.758,9.762c-6.206,0-7.758-6.853-7.758-9.762
		C130.78,167.208,132.267,160.356,138.537,160.356z"/>
	<path style="fill:#194F82;" d="M102.465,188.154c3.879,0,7.046-1.422,9.503-4.073c2.457-2.715,3.685-6.788,3.685-12.218v-29.802
		h-21.01v8.727h11.96v21.463c0,2.263-0.453,3.879-1.422,5.042c-0.905,1.099-2.004,1.681-3.232,1.681
		c-2.651,0-5.172-1.487-7.564-4.461l-4.655,7.37C93.414,186.085,97.616,188.154,102.465,188.154z"/>
	<path style="fill:#194F82;" d="M246.238,95.838h5.43c6.012,0,10.925-4.848,10.925-10.925c0-6.077-4.849-10.925-10.925-10.925h-5.43
		c-6.012,0-10.925,4.848-10.925,10.925C235.313,90.99,240.226,95.838,246.238,95.838z"/>
	<path style="fill:#194F82;" d="M94.966,95.838h103.564c6.012,0,10.925-4.848,10.925-10.925c0-6.077-4.848-10.925-10.925-10.925
		H94.966c-6.012,0-10.925,4.848-10.925,10.925C84.04,90.99,88.954,95.838,94.966,95.838z"/>
	<path style="fill:#194F82;" d="M288.776,95.838h5.43c6.012,0,10.925-4.848,10.925-10.925c0-6.077-4.848-10.925-10.925-10.925h-5.43
		c-6.012,0-10.925,4.848-10.925,10.925C277.851,90.99,282.764,95.838,288.776,95.838z"/>
	<path style="fill:#194F82;" d="M89.794,244.848h85.204c6.012,0,10.925-4.848,10.925-10.925s-4.848-10.925-10.925-10.925H89.794
		c-6.012,0-10.925,4.848-10.925,10.925C78.869,239.935,83.782,244.848,89.794,244.848z"/>
	<path style="fill:#194F82;" d="M219.927,244.848h85.333c6.012,0,10.925-4.848,10.925-10.925s-4.848-10.925-10.925-10.925h-85.333
		c-6.012,0-10.925,4.848-10.925,10.925C209.002,239.935,213.98,244.848,219.927,244.848z"/>
	<path style="fill:#194F82;" d="M219.927,209.034h85.333c6.012,0,10.925-4.848,10.925-10.925c0-6.012-4.848-10.925-10.925-10.925
		h-85.333c-6.012,0-10.925,4.848-10.925,10.925C209.002,204.186,213.98,209.034,219.927,209.034z"/>
	<path style="fill:#194F82;" d="M219.927,173.22h85.333c6.012,0,10.925-4.848,10.925-10.925c0-6.012-4.848-10.925-10.925-10.925
		h-85.333c-6.012,0-10.925,4.848-10.925,10.925S213.98,173.22,219.927,173.22z"/>
	<path style="fill:#194F82;" d="M169.891,183.046c2.392,3.491,5.495,5.172,9.115,5.172c7.434,0,14.158-8.469,14.158-18.489
		c0-7.24-3.943-17.842-14.093-17.842c-3.814,0-6.853,1.487-9.18,4.461v-17.325h-8.663v48.549h8.663V183.046z M177.196,160.291
		c6.206,0,7.37,6.853,7.37,9.762s-1.228,9.762-7.37,9.762c-5.883,0-7.37-6.853-7.37-9.762
		C169.826,167.208,171.313,160.291,177.196,160.291z"/>
</g>
</svg>