<?xml version="1.0" ?>
<!-- Uploaded to: SVG Repo, www.svgrepo.com, Generator: SVG Repo Mixer Tools -->
<svg width="800px" height="800px" viewBox="0 0 128 128" id="Layer_1" version="1.1" xml:space="preserve" xmlns="http://www.w3.org/2000/svg" xmlns:xlink="http://www.w3.org/1999/xlink">
<style type="text/css">
	.st0{fill:#581166;}
	.st1{fill:#E83A3A;}
	.st2{fill:#FF5855;}
	.st3{opacity:0.5;}
	.st4{fill:#FFDA8E;}
	.st5{fill:#FFFFFF;}
	.st6{fill:#EABA65;}
	.st7{fill:#E6E6E6;}
	.st8{fill:#460A54;}
	.st9{fill:none;}
	.st10{fill:none;stroke:#581166;stroke-width:2;stroke-linecap:round;stroke-linejoin:round;stroke-miterlimit:10;}
	.st11{fill:#F2F2F2;}
</style>
<g>
<g>
<g>
<g>
<polygon class="st2" points="83.3,123.8 43.1,123.8 44.1,109.6 45.2,94.4 46.4,76.7 47.4,61.5 48.4,47.3 77.3,47.3 78.4,61.5       79.6,76.7 81,94.4 82.2,109.6     "/>
</g>
</g>
</g>
<g>
<g>
<g>
<path class="st0" d="M83.3,125.6H43.1c-0.5,0-1-0.2-1.4-0.6c-0.4-0.4-0.5-0.9-0.5-1.4l5.2-76.5c0.1-1,0.9-1.7,1.9-1.7h28.9      c1,0,1.8,0.8,1.9,1.7l6,76.5c0,0.5-0.1,1-0.5,1.4C84.3,125.4,83.8,125.6,83.3,125.6z M45.1,121.9h36.1l-5.7-72.7H50.1      L45.1,121.9z"/>
</g>
</g>
</g>
<g>
<g>
<g>
<rect class="st2" height="11.9" width="40.2" x="43.1" y="40.6"/>
</g>
</g>
</g>
<g>
<g>
<g>
<path class="st0" d="M83.3,54.5H43.1c-1,0-1.9-0.8-1.9-1.9V40.6c0-1,0.8-1.9,1.9-1.9h40.2c1,0,1.9,0.8,1.9,1.9v11.9      C85.2,53.6,84.3,54.5,83.3,54.5z M45,50.7h36.4v-8.2H45V50.7z"/>
</g>
</g>
</g>
<g>
<g>
<g>
<polygon class="st5" points="79.9,76.7 46.6,76.7 47.6,61.5 78.7,61.5     "/>
</g>
</g>
</g>
<g>
<g>
<g>
<polygon class="st5" points="82.3,109.6 44.2,109.6 45.2,94.4 81.1,94.4     "/>
</g>
</g>
</g>
<g class="st3">
<g>
<g>
<rect class="st0" height="4.3" width="30.2" x="48.1" y="52.6"/>
</g>
</g>
</g>
<g>
<g>
<g>
<path class="st0" d="M79.9,78.6H46.6c-0.5,0-1-0.2-1.4-0.6c-0.4-0.4-0.5-0.9-0.5-1.4l1-15.2c0.1-1,0.9-1.7,1.9-1.7h31      c1,0,1.8,0.8,1.9,1.7l1.2,15.2c0,0.5-0.1,1-0.5,1.4C80.9,78.4,80.4,78.6,79.9,78.6z M48.6,74.8h29.2l-0.9-11.5H49.4L48.6,74.8z"/>
</g>
</g>
</g>
<g>
<g>
<g>
<path class="st0" d="M82.3,111.5H44.2c-0.5,0-1-0.2-1.4-0.6c-0.4-0.4-0.5-0.9-0.5-1.4l1-15.2c0.1-1,0.9-1.7,1.9-1.7h35.8      c1,0,1.8,0.8,1.9,1.7l1.2,15.2c0,0.5-0.1,1-0.5,1.4C83.3,111.2,82.8,111.5,82.3,111.5z M46.2,107.7h34.1l-0.9-11.5H47      L46.2,107.7z"/>
</g>
</g>
</g>
<g>
<g>
<g>
<rect class="st2" height="16.1" width="31.5" x="47.5" y="24.3"/>
</g>
</g>
</g>
<g>
<g>
<g>
<path class="st0" d="M79,42.4H47.5c-1,0-1.9-0.8-1.9-1.9V24.3c0-1,0.8-1.9,1.9-1.9H79c1,0,1.9,0.8,1.9,1.9v16.1      C80.9,41.5,80,42.4,79,42.4z M49.3,38.6h27.8V26.2H49.3V38.6z"/>
</g>
</g>
</g>
<g>
<g>
<g>
<path class="st2" d="M85.9,24.3C84.6,13,74.9,4,63.2,4h0C51.5,4,41.8,13,40.5,24.3H85.9z"/>
</g>
</g>
</g>
<g>
<g>
<g>
<path class="st0" d="M85.9,26.2H40.5c-0.5,0-1-0.2-1.4-0.6c-0.4-0.4-0.5-0.9-0.5-1.5c1.4-12.5,11.9-22,24.5-22      c12.6,0,23.2,9.4,24.5,22c0.1,0.5-0.1,1.1-0.5,1.5C87,26,86.4,26.2,85.9,26.2z M42.7,22.5h41c-2-9.6-10.5-16.6-20.5-16.6      C53.2,5.9,44.8,12.9,42.7,22.5z"/>
</g>
</g>
</g>
<g>
<g>
<g>
<g>
<rect class="st4" height="6.7" width="14.2" x="56.1" y="29.2"/>
</g>
</g>
</g>
<g>
<g>
<g>
<path class="st0" d="M70.3,37.7H56.1c-1,0-1.9-0.8-1.9-1.9v-6.7c0-1,0.8-1.9,1.9-1.9h14.2c1,0,1.9,0.8,1.9,1.9v6.7       C72.2,36.9,71.4,37.7,70.3,37.7z M58,33.9h10.5V31H58V33.9z"/>
</g>
</g>
</g>
</g>
<g>
<g>
<g>
<g>
<g>
<line class="st4" x1="94.3" x2="111" y1="26.5" y2="14.2"/>
</g>
</g>
<g>
<g>
<path class="st0" d="M94.3,28.3c-0.6,0-1.1-0.3-1.5-0.8c-0.6-0.8-0.4-2,0.4-2.6l16.7-12.2c0.8-0.6,2-0.4,2.6,0.4        c0.6,0.8,0.4,2-0.4,2.6L95.4,28C95,28.2,94.7,28.3,94.3,28.3z"/>
</g>
</g>
</g>
<g>
<g>
<g>
<line class="st4" x1="94.3" x2="111" y1="45.4" y2="57.6"/>
</g>
</g>
<g>
<g>
<path class="st0" d="M111,59.5c-0.4,0-0.8-0.1-1.1-0.4L93.2,46.9c-0.8-0.6-1-1.8-0.4-2.6c0.6-0.8,1.8-1,2.6-0.4l16.7,12.2        c0.8,0.6,1,1.8,0.4,2.6C112.1,59.2,111.6,59.5,111,59.5z"/>
</g>
</g>
</g>
<g>
<g>
<g>
<path class="st0" d="M111,37.7H94.3c-1,0-1.9-0.8-1.9-1.9c0-1,0.8-1.9,1.9-1.9H111c1,0,1.9,0.8,1.9,1.9        C112.9,36.9,112,37.7,111,37.7z"/>
</g>
</g>
</g>
</g>
<g>
<g>
<g>
<g>
<line class="st4" x1="32.2" x2="15.5" y1="45.4" y2="57.6"/>
</g>
</g>
<g>
<g>
<path class="st0" d="M15.5,59.5c-0.6,0-1.1-0.3-1.5-0.8c-0.6-0.8-0.4-2,0.4-2.6l16.7-12.2c0.8-0.6,2-0.4,2.6,0.4        c0.6,0.8,0.4,2-0.4,2.6L16.6,59.1C16.2,59.4,15.8,59.5,15.5,59.5z"/>
</g>
</g>
</g>
<g>
<g>
<g>
<line class="st4" x1="32.2" x2="15.5" y1="26.5" y2="14.2"/>
</g>
</g>
<g>
<g>
<path class="st0" d="M32.2,28.3c-0.4,0-0.8-0.1-1.1-0.4L14.4,15.8c-0.8-0.6-1-1.8-0.4-2.6c0.6-0.8,1.8-1,2.6-0.4l16.7,12.2        c0.8,0.6,1,1.8,0.4,2.6C33.3,28.1,32.8,28.3,32.2,28.3z"/>
</g>
</g>
</g>
<g>
<g>
<g>
<line class="st4" x1="32.2" x2="15.5" y1="36" y2="36"/>
</g>
</g>
<g>
<g>
<path class="st0" d="M32.2,37.9H15.5c-1,0-1.9-0.8-1.9-1.9s0.8-1.9,1.9-1.9h16.7c1,0,1.9,0.8,1.9,1.9S33.2,37.9,32.2,37.9z"/>
</g>
</g>
</g>
</g>
</g>
<g>
<g>
<g>
<path class="st0" d="M118.5,125.6H7.9c-1,0-1.9-0.8-1.9-1.9s0.8-1.9,1.9-1.9h110.6c1,0,1.9,0.8,1.9,1.9S119.5,125.6,118.5,125.6      z"/>
</g>
</g>
</g>
<g>
<g>
<g>
<path class="st4" d="M105.7,123.8c-0.4-4.9-4.3-8.9-9.2-9.3c-1.6-3.5-5.1-5.9-9.2-5.9c-4.1,0-7.6,2.4-9.2,5.9      c-4.3,1.1-7.5,4.8-7.7,9.3H105.7z"/>
</g>
</g>
<g>
<g>
<path class="st0" d="M105.7,125.6H70.3c-0.5,0-1-0.2-1.4-0.6c-0.4-0.4-0.5-0.9-0.5-1.4c0.2-4.9,3.6-9.3,8.2-10.8      c2.1-3.8,6.2-6.2,10.5-6.2c4.3,0,8.3,2.4,10.5,6.1c5.4,1,9.4,5.4,9.9,10.9c0,0.5-0.1,1-0.5,1.4      C106.7,125.4,106.2,125.6,105.7,125.6z M72.5,121.9h30.9c-1-3.1-3.8-5.3-7.1-5.6c-0.7-0.1-1.3-0.5-1.5-1.1      c-1.4-2.9-4.3-4.8-7.5-4.8c-3.2,0-6.2,1.9-7.5,4.8c-0.2,0.5-0.7,0.9-1.2,1C75.6,116.9,73.4,119.2,72.5,121.9z"/>
</g>
</g>
</g>
</g>
</svg>